<mxfile host="app.diagrams.net" modified="2023-01-06T03:34:36.911Z" agent="5.0 (Macintosh; Intel Mac OS X 10_15_7) AppleWebKit/605.1.15 (KHTML, like Gecko) Version/16.1 Safari/605.1.15" version="20.8.1" etag="Q0Kxzm5quDZTiplbQzvv" type="github">
  <diagram id="YrQPYyQ6Zh5Yh3ciE57A" name="Page-1">
    <mxGraphModel dx="958" dy="467" grid="1" gridSize="10" guides="1" tooltips="1" connect="1" arrows="1" fold="1" page="1" pageScale="1" pageWidth="850" pageHeight="1100" math="0" shadow="0">
      <root>
        <mxCell id="0" />
        <mxCell id="1" parent="0" />
        <mxCell id="-rK5Bxmepp_kP9VdTgiV-1" value="memory" style="rounded=0;whiteSpace=wrap;html=1;" vertex="1" parent="1">
          <mxGeometry x="600" y="290" width="120" height="60" as="geometry" />
        </mxCell>
        <mxCell id="-rK5Bxmepp_kP9VdTgiV-2" value="ElfMem" style="rounded=0;whiteSpace=wrap;html=1;" vertex="1" parent="1">
          <mxGeometry x="650" y="330" width="60" height="20" as="geometry" />
        </mxCell>
        <mxCell id="-rK5Bxmepp_kP9VdTgiV-12" style="edgeStyle=orthogonalEdgeStyle;rounded=0;orthogonalLoop=1;jettySize=auto;html=1;exitX=0.5;exitY=1;exitDx=0;exitDy=0;" edge="1" parent="1" source="-rK5Bxmepp_kP9VdTgiV-3">
          <mxGeometry relative="1" as="geometry">
            <mxPoint x="510" y="320" as="targetPoint" />
          </mxGeometry>
        </mxCell>
        <mxCell id="-rK5Bxmepp_kP9VdTgiV-3" value="wr_fifo" style="rounded=0;whiteSpace=wrap;html=1;" vertex="1" parent="1">
          <mxGeometry x="450" y="290" width="100" height="30" as="geometry" />
        </mxCell>
        <mxCell id="-rK5Bxmepp_kP9VdTgiV-4" value="write" style="shape=flexArrow;endArrow=classic;html=1;rounded=0;entryX=0;entryY=0.25;entryDx=0;entryDy=0;exitX=1;exitY=0.5;exitDx=0;exitDy=0;" edge="1" parent="1" source="-rK5Bxmepp_kP9VdTgiV-3" target="-rK5Bxmepp_kP9VdTgiV-1">
          <mxGeometry width="50" height="50" relative="1" as="geometry">
            <mxPoint x="400" y="450" as="sourcePoint" />
            <mxPoint x="450" y="400" as="targetPoint" />
          </mxGeometry>
        </mxCell>
        <mxCell id="-rK5Bxmepp_kP9VdTgiV-6" value="read data" style="shape=flexArrow;endArrow=classic;html=1;rounded=0;entryX=1.007;entryY=0.942;entryDx=0;entryDy=0;entryPerimeter=0;exitX=0;exitY=1;exitDx=0;exitDy=0;" edge="1" parent="1" source="-rK5Bxmepp_kP9VdTgiV-1" target="-rK5Bxmepp_kP9VdTgiV-9">
          <mxGeometry width="50" height="50" relative="1" as="geometry">
            <mxPoint x="630" y="330" as="sourcePoint" />
            <mxPoint x="430" y="330" as="targetPoint" />
            <Array as="points">
              <mxPoint x="400" y="350" />
              <mxPoint x="400" y="375" />
            </Array>
          </mxGeometry>
        </mxCell>
        <mxCell id="-rK5Bxmepp_kP9VdTgiV-9" value="Cache&lt;br&gt;n-way&lt;br&gt;k-Bytes" style="rounded=0;whiteSpace=wrap;html=1;" vertex="1" parent="1">
          <mxGeometry x="250" y="257.5" width="120" height="125" as="geometry" />
        </mxCell>
        <mxCell id="-rK5Bxmepp_kP9VdTgiV-10" value="flush" style="shape=flexArrow;endArrow=classic;html=1;rounded=0;entryX=0;entryY=0.25;entryDx=0;entryDy=0;exitX=1;exitY=0.156;exitDx=0;exitDy=0;exitPerimeter=0;" edge="1" parent="1" source="-rK5Bxmepp_kP9VdTgiV-9" target="-rK5Bxmepp_kP9VdTgiV-3">
          <mxGeometry x="0.2364" y="-2" width="50" height="50" relative="1" as="geometry">
            <mxPoint x="400" y="450" as="sourcePoint" />
            <mxPoint x="450" y="400" as="targetPoint" />
            <Array as="points">
              <mxPoint x="370" y="277" />
              <mxPoint x="390" y="277" />
              <mxPoint x="390" y="298" />
            </Array>
            <mxPoint as="offset" />
          </mxGeometry>
        </mxCell>
        <mxCell id="-rK5Bxmepp_kP9VdTgiV-11" value="fill req" style="shape=flexArrow;endArrow=classic;html=1;rounded=0;entryX=0;entryY=0.75;entryDx=0;entryDy=0;exitX=0.998;exitY=0.622;exitDx=0;exitDy=0;exitPerimeter=0;" edge="1" parent="1" source="-rK5Bxmepp_kP9VdTgiV-9" target="-rK5Bxmepp_kP9VdTgiV-1">
          <mxGeometry x="-0.4724" width="50" height="50" relative="1" as="geometry">
            <mxPoint x="340" y="340" as="sourcePoint" />
            <mxPoint x="520" y="410" as="targetPoint" />
            <Array as="points">
              <mxPoint x="490" y="335" />
              <mxPoint x="510" y="320" />
              <mxPoint x="530" y="335" />
            </Array>
            <mxPoint as="offset" />
          </mxGeometry>
        </mxCell>
        <mxCell id="-rK5Bxmepp_kP9VdTgiV-14" value="serializer" style="rounded=0;whiteSpace=wrap;html=1;" vertex="1" parent="1">
          <mxGeometry x="60" y="150" width="120" height="60" as="geometry" />
        </mxCell>
        <mxCell id="-rK5Bxmepp_kP9VdTgiV-15" value="TLM2 b_transport from systemC" style="shape=flexArrow;endArrow=classic;html=1;rounded=0;entryX=0.5;entryY=0;entryDx=0;entryDy=0;" edge="1" parent="1" target="-rK5Bxmepp_kP9VdTgiV-14">
          <mxGeometry x="-0.2787" y="-3" width="50" height="50" relative="1" as="geometry">
            <mxPoint x="80" y="100" as="sourcePoint" />
            <mxPoint x="450" y="310" as="targetPoint" />
            <mxPoint as="offset" />
          </mxGeometry>
        </mxCell>
        <mxCell id="-rK5Bxmepp_kP9VdTgiV-18" value="wr_fifo" style="rounded=0;whiteSpace=wrap;html=1;" vertex="1" parent="1">
          <mxGeometry x="110" y="270" width="40" height="76.25" as="geometry" />
        </mxCell>
        <mxCell id="-rK5Bxmepp_kP9VdTgiV-19" value="write" style="shape=flexArrow;endArrow=classic;html=1;rounded=0;exitX=0.664;exitY=1.002;exitDx=0;exitDy=0;entryX=0.75;entryY=0;entryDx=0;entryDy=0;exitPerimeter=0;" edge="1" parent="1" source="-rK5Bxmepp_kP9VdTgiV-14" target="-rK5Bxmepp_kP9VdTgiV-18">
          <mxGeometry width="50" height="50" relative="1" as="geometry">
            <mxPoint x="400" y="270" as="sourcePoint" />
            <mxPoint x="450" y="220" as="targetPoint" />
          </mxGeometry>
        </mxCell>
        <mxCell id="-rK5Bxmepp_kP9VdTgiV-21" value="read&lt;br&gt;req" style="shape=flexArrow;endArrow=classic;html=1;rounded=0;entryX=0;entryY=0.75;entryDx=0;entryDy=0;" edge="1" parent="1" target="-rK5Bxmepp_kP9VdTgiV-9">
          <mxGeometry x="-0.8422" width="50" height="50" relative="1" as="geometry">
            <mxPoint x="85" y="213" as="sourcePoint" />
            <mxPoint x="450" y="220" as="targetPoint" />
            <Array as="points">
              <mxPoint x="85" y="290" />
              <mxPoint x="110" y="300" />
              <mxPoint x="90" y="320" />
              <mxPoint x="90" y="360" />
              <mxPoint x="200" y="360" />
              <mxPoint x="200" y="350" />
            </Array>
            <mxPoint as="offset" />
          </mxGeometry>
        </mxCell>
        <mxCell id="-rK5Bxmepp_kP9VdTgiV-22" value="write" style="shape=flexArrow;endArrow=classic;html=1;rounded=0;exitX=1;exitY=0.25;exitDx=0;exitDy=0;entryX=0;entryY=0.25;entryDx=0;entryDy=0;" edge="1" parent="1" source="-rK5Bxmepp_kP9VdTgiV-18" target="-rK5Bxmepp_kP9VdTgiV-9">
          <mxGeometry width="50" height="50" relative="1" as="geometry">
            <mxPoint x="400" y="270" as="sourcePoint" />
            <mxPoint x="450" y="220" as="targetPoint" />
          </mxGeometry>
        </mxCell>
        <mxCell id="-rK5Bxmepp_kP9VdTgiV-25" value="read data" style="shape=flexArrow;endArrow=classic;html=1;rounded=0;exitX=0;exitY=1;exitDx=0;exitDy=0;entryX=0;entryY=1;entryDx=0;entryDy=0;" edge="1" parent="1" source="-rK5Bxmepp_kP9VdTgiV-9" target="-rK5Bxmepp_kP9VdTgiV-14">
          <mxGeometry width="50" height="50" relative="1" as="geometry">
            <mxPoint x="400" y="270" as="sourcePoint" />
            <mxPoint x="450" y="220" as="targetPoint" />
            <Array as="points">
              <mxPoint x="60" y="380" />
            </Array>
          </mxGeometry>
        </mxCell>
        <mxCell id="-rK5Bxmepp_kP9VdTgiV-26" value="RISC-V-TLM&lt;br&gt;(systemC)" style="ellipse;shape=cloud;whiteSpace=wrap;html=1;" vertex="1" parent="1">
          <mxGeometry x="20" y="30" width="120" height="80" as="geometry" />
        </mxCell>
      </root>
    </mxGraphModel>
  </diagram>
</mxfile>
